HIERARCHY
ROOT pelvis
{
	OFFSET 0.000000 0.719631 -0.000000
	CHANNELS 6 Xposition Yposition Zposition Xrotation Yrotation Zrotation
	JOINT spine
	{
		OFFSET 0.000000 0.000000 0.000000
		CHANNELS 6 Xposition Yposition Zposition Xrotation Yrotation Zrotation
		JOINT spine.001
		{
			OFFSET 0.000000 0.232063 0.012162
			CHANNELS 3 Xrotation Yrotation Zrotation
			JOINT neck
			{
				OFFSET 0.000000 0.230649 -0.028320
				CHANNELS 6 Xposition Yposition Zposition Xrotation Yrotation Zrotation
				JOINT face
				{
					OFFSET 0.000000 0.176459 -0.003080
					CHANNELS 6 Xposition Yposition Zposition Xrotation Yrotation Zrotation
					End Site
					{
						OFFSET 0.000000 -0.007071 0.030870
					}
				}
			}
			JOINT shoulder.L
			{
				OFFSET 0.000000 0.230649 -0.028320
				CHANNELS 6 Xposition Yposition Zposition Yrotation Xrotation Zrotation
				JOINT upper_arm.L
				{
					OFFSET 0.163250 0.000000 0.000000
					CHANNELS 6 Xposition Yposition Zposition Xrotation Yrotation Zrotation
					JOINT forearm.L
					{
						OFFSET 0.252367 0.000882 -0.000106
						CHANNELS 6 Xposition Yposition Zposition Xrotation Yrotation Zrotation
						End Site
						{
							OFFSET 0.221264 -0.001215 0.003765
						}
					}
				}
			}
			JOINT shoulder.R
			{
				OFFSET 0.000000 0.230649 -0.028320
				CHANNELS 6 Xposition Yposition Zposition Yrotation Xrotation Zrotation
				JOINT upper_arm.R
				{
					OFFSET -0.163250 0.000000 0.000000
					CHANNELS 6 Xposition Yposition Zposition Xrotation Yrotation Zrotation
					JOINT forearm.R
					{
						OFFSET -0.250191 0.000882 -0.000106
						CHANNELS 6 Xposition Yposition Zposition Xrotation Yrotation Zrotation
						End Site
						{
							OFFSET -0.215729 -0.001215 0.003668
						}
					}
				}
			}
		}
	}
	JOINT pelvis.L
	{
		OFFSET 0.000000 0.000000 0.000000
		CHANNELS 6 Xposition Yposition Zposition Yrotation Xrotation Zrotation
		End Site
		{
			OFFSET 0.096594 0.000000 0.000000
		}
	}
	JOINT pelvis.R
	{
		OFFSET 0.000000 0.000000 0.000000
		CHANNELS 6 Xposition Yposition Zposition Yrotation Xrotation Zrotation
		End Site
		{
			OFFSET -0.096594 0.000000 0.000000
		}
	}
	JOINT thigh.L
	{
		OFFSET 0.096594 0.000000 0.000000
		CHANNELS 6 Xposition Yposition Zposition Xrotation Yrotation Zrotation
		JOINT shin.L
		{
			OFFSET 0.017325 -0.330572 0.000000
			CHANNELS 6 Xposition Yposition Zposition Xrotation Yrotation Zrotation
			JOINT foot.L
			{
				OFFSET 0.016916 -0.322768 0.000000
				CHANNELS 6 Xposition Yposition Zposition Xrotation Yrotation Zrotation
				End Site
				{
					OFFSET 0.014533 -0.062224 0.148181
				}
			}
		}
	}
	JOINT thigh.R
	{
		OFFSET -0.096594 0.000000 0.000000
		CHANNELS 6 Xposition Yposition Zposition Xrotation Yrotation Zrotation
		JOINT shin.R
		{
			OFFSET -0.017218 -0.328541 0.000000
			CHANNELS 6 Xposition Yposition Zposition Xrotation Yrotation Zrotation
			JOINT foot.R
			{
				OFFSET -0.017084 -0.325985 0.000000
				CHANNELS 6 Xposition Yposition Zposition Xrotation Yrotation Zrotation
				End Site
				{
					OFFSET -0.015339 -0.065674 0.156396
				}
			}
		}
	}
}
MOTION
Frames: 10
Frame Time: 0.041667
-0.024568 -0.020239 0.047692 0.000001 -16.050642 0.000005 -0.000000 -0.000000 0.000000 -9.461337 0.027103 -0.199649 10.007088 2.581178 -0.317145 0.000000 0.230649 -0.028320 19.875338 -8.622489 1.817476 -0.000000 0.176460 -0.003080 -4.678559 -0.000008 -0.000006 -0.000000 0.230649 -0.028320 -0.019512 -0.000028 -0.159173 0.163250 -0.000000 0.000000 -5.401557 -6.186278 -82.199749 0.252367 0.000882 -0.000106 -0.784239 -10.782333 -9.328833 -0.000000 0.230649 -0.028320 -0.025437 -0.000046 -0.207330 -0.163250 -0.000000 -0.000000 -5.075720 6.102620 79.443310 -0.250191 0.000882 -0.000106 -1.102433 13.470596 10.097889 0.000000 0.000000 -0.000000 -0.000020 -0.000001 -1.208886 0.000000 0.000000 -0.000000 0.000015 0.000000 -1.208851 0.096572 -0.002038 -0.000000 11.896449 -0.219164 -8.103263 0.017325 -0.330572 0.000000 0.576829 0.082260 10.228604 0.016916 -0.322768 0.000000 -8.917777 19.616073 10.879229 -0.096572 0.002038 0.000000 10.766643 -0.394825 1.811985 -0.017218 -0.328541 0.000000 -7.009589 0.264123 1.689645 -0.017084 -0.325985 0.000000 -6.651948 0.558170 -0.396177 
-0.025964 -0.020418 0.047253 0.000001 -15.909683 0.000005 0.000000 0.000000 0.000000 -9.398414 0.039609 -0.293026 10.006820 2.527091 -0.310490 -0.000000 0.230649 -0.028320 19.840818 -8.988611 1.975060 -0.000000 0.176460 -0.003080 -4.692438 0.000000 -0.000001 -0.000000 0.230649 -0.028320 -0.017179 -0.000016 -0.139803 0.163250 -0.000000 0.000000 -5.553238 -6.353052 -82.272620 0.252367 0.000882 -0.000106 -0.782244 -10.702608 -9.393619 -0.000000 0.230649 -0.028320 -0.023098 -0.000036 -0.188002 -0.163250 -0.000000 -0.000000 -5.150988 6.198644 79.399399 -0.250191 0.000882 -0.000106 -1.060864 13.343197 9.807090 0.000000 0.000000 -0.000000 -0.000053 -0.000000 -1.245487 0.000000 0.000000 -0.000000 -0.000002 -0.000000 -1.245487 0.096571 -0.002100 0.000000 11.719669 -0.205474 -8.001672 0.017325 -0.330572 0.000000 0.939472 0.134767 10.323562 0.016916 -0.322768 0.000000 -9.147887 19.247256 10.764052 -0.096571 0.002100 -0.000000 10.828590 -0.376094 2.033402 -0.017218 -0.328541 0.000000 -7.062967 0.274820 1.549142 -0.017084 -0.325985 0.000000 -6.647175 0.394160 -0.476027 
-0.027666 -0.020593 0.046570 0.000001 -15.747612 0.000005 0.000000 -0.000000 0.000000 -9.293220 0.055199 -0.411135 10.006683 2.485171 -0.305330 -0.000000 0.230649 -0.028320 19.692395 -9.280625 2.103750 0.000000 0.176459 -0.003080 -4.641393 0.000013 0.000001 -0.000000 0.230649 -0.028320 -0.012336 -0.000011 -0.100531 0.163250 -0.000000 0.000000 -5.750758 -6.577122 -82.302263 0.252367 0.000882 -0.000106 -0.775350 -10.577233 -9.449028 -0.000000 0.230649 -0.028320 -0.018279 -0.000023 -0.148729 -0.163250 -0.000000 -0.000000 -5.294943 6.371905 79.410511 -0.250191 0.000882 -0.000106 -1.015767 13.186569 9.500565 0.000000 0.000000 -0.000000 -0.000014 -0.000001 -1.311052 0.000000 0.000000 -0.000000 0.000009 0.000000 -1.311052 0.096568 -0.002210 0.000000 11.503899 -0.185674 -7.843076 0.017325 -0.330572 0.000000 1.312944 0.188850 10.367396 0.016916 -0.322768 0.000000 -9.248487 19.001224 10.669942 -0.096568 0.002210 -0.000000 10.883801 -0.351987 2.306373 -0.017218 -0.328541 0.000000 -7.133891 0.287917 1.383666 -0.017084 -0.325985 0.000000 -6.629507 0.244495 -0.547528 
-0.029541 -0.020781 0.045828 0.000001 -15.614506 0.000005 -0.000000 0.000000 -0.000000 -9.174475 0.070786 -0.531445 10.006504 2.460100 -0.302249 0.000000 0.230649 -0.028320 19.479657 -9.429533 2.205144 0.000000 0.176460 -0.003080 -4.557568 -0.000007 0.000003 0.000000 0.230649 -0.028320 -0.007380 -0.000005 -0.059855 0.163250 -0.000000 0.000000 -5.998212 -6.861006 -82.310623 0.252367 0.000882 -0.000106 -0.747924 -10.306046 -9.405311 0.000000 0.230649 -0.028320 -0.013273 -0.000012 -0.108012 -0.163250 -0.000000 -0.000000 -5.492658 6.603777 79.475685 -0.250191 0.000882 -0.000106 -0.966655 12.933059 9.230833 0.000000 0.000000 -0.000000 -0.000014 -0.000000 -1.392781 0.000000 0.000000 -0.000000 0.000007 0.000000 -1.392746 0.096565 -0.002348 -0.000000 11.294744 -0.160573 -7.623597 0.017325 -0.330572 0.000000 1.638262 0.234954 10.320561 0.016916 -0.322768 0.000000 -9.228423 18.885372 10.604681 -0.096565 0.002348 -0.000000 10.930795 -0.326697 2.586393 -0.017218 -0.328541 0.000000 -7.211071 0.299952 1.242458 -0.017084 -0.325985 0.000000 -6.605911 0.123662 -0.604236 
-0.031278 -0.020938 0.045175 0.000001 -15.554812 0.000005 -0.000000 -0.000000 0.000000 -9.069456 0.082040 -0.620255 10.006638 2.488837 -0.305787 0.000000 0.230649 -0.028320 19.317413 -9.510174 2.312537 -0.000000 0.176459 -0.003080 -4.531966 0.000001 0.000001 -0.000000 0.230649 -0.028320 -0.006275 -0.000003 -0.050354 0.163250 0.000000 0.000000 -6.264974 -7.168435 -82.308110 0.252367 0.000882 -0.000106 -0.707199 -9.933410 -9.296406 -0.000000 0.230649 -0.028320 -0.012180 -0.000007 -0.098552 -0.163250 -0.000000 -0.000000 -5.674381 6.813556 79.559109 -0.250191 0.000882 -0.000106 -0.925078 12.653490 9.051017 0.000000 0.000000 -0.000000 0.000015 0.000000 -1.446290 0.000000 0.000000 -0.000000 0.000015 0.000000 -1.446290 0.096563 -0.002438 -0.000000 11.110978 -0.138558 -7.424290 0.017325 -0.330572 0.000000 1.917636 0.274040 10.262626 0.016916 -0.322768 0.000000 -9.189487 18.834902 10.566961 -0.096563 0.002438 -0.000000 10.963550 -0.305573 2.816738 -0.017218 -0.328541 0.000000 -7.285608 0.308192 1.162159 -0.017084 -0.325985 0.000000 -6.567964 0.034591 -0.643881 
-0.032728 -0.021019 0.044527 0.000001 -15.571411 0.000005 -0.000000 -0.000000 0.000000 -8.971645 0.087189 -0.663464 10.007295 2.608535 -0.320508 0.000000 0.230649 -0.028320 19.267600 -9.747622 2.444866 0.000000 0.176460 -0.003080 -4.613450 0.000011 0.000007 -0.000000 0.230649 -0.028320 -0.009824 -0.000007 -0.080063 0.163250 -0.000000 0.000000 -6.516242 -7.461263 -82.281219 0.252367 0.000882 -0.000106 -0.675354 -9.612946 -9.241183 -0.000000 0.230649 -0.028320 -0.015761 -0.000014 -0.128261 -0.163250 0.000000 -0.000000 -5.771334 6.921488 79.634193 -0.250191 0.000882 -0.000106 -0.900533 12.511884 8.918907 -0.000000 0.000000 -0.000000 0.000051 0.000000 -1.446361 -0.000000 0.000000 -0.000000 0.000005 0.000000 -1.446325 0.096563 -0.002438 0.000000 10.950067 -0.125769 -7.311997 0.017325 -0.330572 0.000000 2.167798 0.309942 10.271080 0.016916 -0.322768 0.000000 -9.198589 18.810626 10.557398 -0.096563 0.002438 0.000000 10.971020 -0.289128 2.990097 -0.017218 -0.328541 0.000000 -7.345686 0.313021 1.126621 -0.017084 -0.325985 0.000000 -6.524078 -0.013154 -0.662675 
-0.034017 -0.021028 0.043690 0.000001 -15.635961 0.000005 -0.000000 0.000000 -0.000000 -8.853604 0.088437 -0.678511 10.008400 2.802626 -0.344395 0.000000 0.230649 -0.028320 19.284107 -10.292458 2.589999 0.000000 0.176460 -0.003080 -4.748091 0.000000 0.000004 0.000000 0.230649 -0.028320 -0.014508 -0.000016 -0.117686 0.163250 0.000000 0.000000 -6.728582 -7.713109 -82.227691 0.252367 0.000882 -0.000106 -0.662880 -9.454132 -9.261965 0.000000 0.230649 -0.028320 -0.020406 -0.000029 -0.165884 -0.163250 -0.000000 -0.000000 -5.791390 6.938283 79.694108 -0.250191 0.000882 -0.000106 -0.891225 12.585027 8.753915 -0.000000 0.000000 -0.000000 0.000072 0.000001 -1.407776 -0.000000 0.000000 -0.000000 0.000010 0.000000 -1.407811 0.096565 -0.002373 0.000000 10.809631 -0.119117 -7.258893 0.017325 -0.330572 0.000000 2.372951 0.340379 10.322467 0.016916 -0.322768 -0.000000 -9.205276 18.800695 10.554402 -0.096565 0.002373 -0.000000 10.949486 -0.275162 3.129718 -0.017218 -0.328541 0.000000 -7.390698 0.315724 1.114622 -0.017084 -0.325985 0.000000 -6.497087 -0.015445 -0.661008 
-0.035302 -0.020998 0.042705 0.000001 -15.697633 0.000005 -0.000000 -0.000000 0.000000 -8.713972 0.088690 -0.686862 10.009597 2.996625 -0.368283 0.000000 0.230649 -0.028320 19.303569 -10.965685 2.736236 0.000000 0.176459 -0.003080 -4.854341 0.000002 -0.000006 0.000000 0.230649 -0.028320 -0.016024 -0.000018 -0.130058 0.163250 0.000000 0.000000 -6.886172 -7.902776 -82.170803 0.252367 0.000882 -0.000106 -0.662958 -9.449337 -9.269309 0.000000 0.230649 -0.028320 -0.021912 -0.000034 -0.178257 -0.163250 -0.000000 -0.000000 -5.795239 6.938111 79.732295 -0.250191 0.000882 -0.000106 -0.888847 12.785324 8.554585 -0.000000 0.000000 -0.000000 0.000003 0.000000 -1.362473 -0.000000 0.000000 -0.000000 0.000010 0.000000 -1.362437 0.096566 -0.002297 -0.000000 10.696478 -0.111034 -7.186022 0.017325 -0.330572 0.000000 2.505123 0.359893 10.347491 0.016916 -0.322768 0.000000 -9.123852 18.765371 10.511426 -0.096566 0.002297 -0.000000 10.925016 -0.265106 3.228225 -0.017218 -0.328541 0.000000 -7.448300 0.314856 1.165901 -0.017084 -0.325985 0.000000 -6.502057 -0.015509 -0.661542 
-0.036627 -0.020922 0.041950 0.000001 -15.687187 0.000005 -0.000000 -0.000000 0.000000 -8.598139 0.088413 -0.690348 10.010523 3.121794 -0.383690 0.000000 0.230649 -0.028320 19.357163 -11.335646 2.909450 -0.000000 0.176459 -0.003080 -4.934638 -0.000005 0.000011 -0.000000 0.230649 -0.028320 -0.014057 -0.000012 -0.114651 0.163250 -0.000000 0.000000 -6.984594 -8.022993 -82.124187 0.252367 0.000882 -0.000106 -0.668883 -9.526750 -9.256875 -0.000000 0.230649 -0.028320 -0.019980 -0.000025 -0.162891 -0.163250 -0.000000 -0.000000 -5.804892 6.949325 79.736339 -0.250191 0.000882 -0.000106 -0.888007 12.955647 8.402886 -0.000000 0.000000 -0.000000 0.000014 0.000000 -1.328911 -0.000000 0.000000 -0.000000 0.000000 -0.000000 -1.328876 0.096568 -0.002240 0.000000 10.622328 -0.097436 -7.047899 0.017325 -0.330572 0.000000 2.565437 0.367928 10.319544 0.016916 -0.322768 0.000000 -8.949683 18.649680 10.399433 -0.096568 0.002240 -0.000000 10.947929 -0.262318 3.263242 -0.017218 -0.328541 0.000000 -7.550521 0.308401 1.328794 -0.017084 -0.325985 0.000000 -6.548248 -0.091627 -0.703480 
-0.038050 -0.020771 0.041796 0.000001 -15.560004 0.000005 -0.000000 -0.000000 -0.000000 -8.562611 0.087321 -0.683400 10.010708 3.167038 -0.389269 0.000000 0.230649 -0.028320 19.533750 -11.138774 3.145686 -0.000000 0.176460 -0.003080 -5.061634 0.000000 -0.000002 0.000000 0.230649 -0.028320 -0.010545 -0.000007 -0.085390 0.163250 -0.000000 0.000000 -7.036827 -8.092262 -82.061601 0.252367 0.000882 -0.000106 -0.684106 -9.613164 -9.370127 0.000000 0.230649 -0.028320 -0.016431 -0.000016 -0.133589 -0.163249 -0.000000 -0.000000 -5.779095 6.922780 79.699394 -0.250191 0.000882 -0.000106 -0.890573 13.009746 8.384608 0.000000 0.000000 -0.000000 -0.000050 -0.000000 -1.306243 0.000000 0.000000 -0.000000 -0.000002 -0.000000 -1.306243 0.096569 -0.002202 -0.000000 10.601566 -0.079280 -6.854350 0.017325 -0.330572 0.000000 2.572249 0.367620 10.263493 0.016916 -0.322768 0.000000 -8.751791 18.441591 10.234098 -0.096569 0.002202 -0.000000 11.051849 -0.264071 3.270854 -0.017218 -0.328541 0.000000 -7.693149 0.299699 1.544989 -0.017084 -0.325985 0.000000 -6.654748 -0.279723 -0.806641 
